<svg xmlns="http://www.w3.org/2000/svg" width="220" height="110">
	<path fill="#F44336" d="M0 110a110 110 0 0120.4-63.8l3.3 2.3A106 106 0 004 110" />
	<path fill="#EF9A9A" d="M21.6 44.5A110 110 0 0175.1 5.7l1.2 3.8a106 106 0 00-51.5 37.4" />
	<path fill="#D1D4DC" d="M77 5a110 110 0 0166 0L141.8 9a106 106 0 00-63.6 0" />
	<path fill="#7CD680" d="M145 5.7a110 110 0 0153.4 38.8l-3.2 2.4a106 106 0 00-51.5-37.4" />
	<path fill="#2E7D32" d="M199.6 46.2A110 110 0 01220 110h-4a106 106 0 00-19.7-61.5" />
</svg>